<svg width="56" height="21" viewBox="0 0 56 21" fill="none" xmlns="http://www.w3.org/2000/svg">
<path d="M13.0568 15V6.27273H16.0057C16.6903 6.27273 17.25 6.39631 17.6847 6.64347C18.1222 6.88778 18.446 7.21875 18.6562 7.63636C18.8665 8.05398 18.9716 8.51989 18.9716 9.03409C18.9716 9.5483 18.8665 10.0156 18.6562 10.4361C18.4489 10.8565 18.1278 11.1918 17.6932 11.4418C17.2585 11.6889 16.7017 11.8125 16.0227 11.8125H13.9091V10.875H15.9886C16.4574 10.875 16.8338 10.794 17.1179 10.6321C17.402 10.4702 17.608 10.2514 17.7358 9.97585C17.8665 9.69744 17.9318 9.38352 17.9318 9.03409C17.9318 8.68466 17.8665 8.37216 17.7358 8.09659C17.608 7.82102 17.4006 7.60511 17.1136 7.44886C16.8267 7.28977 16.446 7.21023 15.9716 7.21023H14.1136V15H13.0568ZM20.6213 15H19.5134L22.7179 6.27273H23.8088L27.0134 15H25.9054L23.2975 7.65341H23.2293L20.6213 15ZM21.0304 11.5909H25.4963V12.5284H21.0304V11.5909ZM33.6255 8.45455C33.5743 8.02273 33.367 7.6875 33.0033 7.44886C32.6397 7.21023 32.1937 7.09091 31.6653 7.09091C31.2789 7.09091 30.9408 7.15341 30.6511 7.27841C30.3641 7.40341 30.1397 7.57528 29.9778 7.79403C29.8187 8.01278 29.7391 8.26136 29.7391 8.53977C29.7391 8.77273 29.7945 8.97301 29.9053 9.14062C30.0189 9.3054 30.1638 9.44318 30.34 9.55398C30.5161 9.66193 30.7008 9.75142 30.8939 9.82244C31.0871 9.89062 31.2647 9.94602 31.4266 9.98864L32.313 10.2273C32.5403 10.2869 32.7931 10.3693 33.0715 10.4744C33.3528 10.5795 33.6212 10.723 33.8769 10.9048C34.1354 11.0838 34.3485 11.3139 34.5161 11.5952C34.6837 11.8764 34.7675 12.2216 34.7675 12.6307C34.7675 13.1023 34.6439 13.5284 34.3968 13.9091C34.1525 14.2898 33.7945 14.5923 33.3229 14.8168C32.8542 15.0412 32.2846 15.1534 31.6141 15.1534C30.9891 15.1534 30.4479 15.0526 29.9905 14.8509C29.536 14.6491 29.178 14.3679 28.9167 14.0071C28.6582 13.6463 28.5118 13.2273 28.4778 12.75H29.5687C29.5971 13.0795 29.7079 13.3523 29.9011 13.5682C30.0971 13.7812 30.3442 13.9403 30.6425 14.0455C30.9437 14.1477 31.2675 14.1989 31.6141 14.1989C32.0175 14.1989 32.3797 14.1335 32.7008 14.0028C33.0218 13.8693 33.2761 13.6847 33.4636 13.4489C33.6511 13.2102 33.7448 12.9318 33.7448 12.6136C33.7448 12.3239 33.6638 12.0881 33.5019 11.9062C33.34 11.7244 33.1269 11.5767 32.8627 11.4631C32.5985 11.3494 32.313 11.25 32.0062 11.1648L30.9323 10.858C30.2505 10.6619 29.7107 10.3821 29.313 10.0185C28.9153 9.65483 28.7164 9.17898 28.7164 8.59091C28.7164 8.10227 28.8485 7.67614 29.1127 7.3125C29.3797 6.94602 29.7377 6.66193 30.1866 6.46023C30.6383 6.25568 31.1425 6.15341 31.6993 6.15341C32.2618 6.15341 32.7618 6.25426 33.1993 6.45597C33.6368 6.65483 33.9834 6.92756 34.2391 7.27415C34.4976 7.62074 34.634 8.0142 34.6482 8.45455H33.6255ZM36.5078 7.21023V6.27273H43.0533V7.21023H40.309V15H39.2521V7.21023H36.5078Z" fill="#7A7A7A"/>
</svg>
