<svg width="85" height="21" viewBox="0 0 85 21" fill="none" xmlns="http://www.w3.org/2000/svg">
<path d="M0 10.5C0 4.70101 4.70101 0 10.5 0H74.5C80.299 0 85 4.70101 85 10.5C85 16.299 80.299 21 74.5 21H10.5C4.70101 21 0 16.299 0 10.5Z" fill="#5EA839"/>
<path d="M20.4205 10.6364C20.4205 11.5568 20.2543 12.3523 19.9219 13.0227C19.5895 13.6932 19.1335 14.2102 18.554 14.5739C17.9744 14.9375 17.3125 15.1193 16.5682 15.1193C15.8239 15.1193 15.1619 14.9375 14.5824 14.5739C14.0028 14.2102 13.5469 13.6932 13.2145 13.0227C12.8821 12.3523 12.7159 11.5568 12.7159 10.6364C12.7159 9.71591 12.8821 8.92045 13.2145 8.25C13.5469 7.57955 14.0028 7.0625 14.5824 6.69886C15.1619 6.33523 15.8239 6.15341 16.5682 6.15341C17.3125 6.15341 17.9744 6.33523 18.554 6.69886C19.1335 7.0625 19.5895 7.57955 19.9219 8.25C20.2543 8.92045 20.4205 9.71591 20.4205 10.6364ZM19.3977 10.6364C19.3977 9.88068 19.2713 9.2429 19.0185 8.72301C18.7685 8.20312 18.429 7.80966 18 7.54261C17.5739 7.27557 17.0966 7.14205 16.5682 7.14205C16.0398 7.14205 15.5611 7.27557 15.1321 7.54261C14.706 7.80966 14.3665 8.20312 14.1136 8.72301C13.8636 9.2429 13.7386 9.88068 13.7386 10.6364C13.7386 11.392 13.8636 12.0298 14.1136 12.5497C14.3665 13.0696 14.706 13.4631 15.1321 13.7301C15.5611 13.9972 16.0398 14.1307 16.5682 14.1307C17.0966 14.1307 17.5739 13.9972 18 13.7301C18.429 13.4631 18.7685 13.0696 19.0185 12.5497C19.2713 12.0298 19.3977 11.392 19.3977 10.6364ZM29.5979 6.27273V15H28.5752L23.8195 8.14773H23.7343V15H22.6774V6.27273H23.7002L28.4729 13.142H28.5581V6.27273H29.5979ZM38.1585 9C38.0648 8.71307 37.9412 8.45597 37.7878 8.22869C37.6372 7.99858 37.4568 7.80256 37.2466 7.64062C37.0392 7.47869 36.8034 7.35511 36.5392 7.26989C36.275 7.18466 35.9852 7.14205 35.6699 7.14205C35.1528 7.14205 34.6827 7.27557 34.2594 7.54261C33.8361 7.80966 33.4994 8.20312 33.2494 8.72301C32.9994 9.2429 32.8744 9.88068 32.8744 10.6364C32.8744 11.392 33.0008 12.0298 33.2537 12.5497C33.5065 13.0696 33.8488 13.4631 34.2807 13.7301C34.7125 13.9972 35.1983 14.1307 35.7381 14.1307C36.2381 14.1307 36.6784 14.0241 37.0591 13.8111C37.4426 13.5952 37.7409 13.2912 37.954 12.8991C38.1699 12.5043 38.2778 12.0398 38.2778 11.5057L38.6017 11.5739H35.9767V10.6364H39.3006V11.5739C39.3006 12.2926 39.1471 12.9176 38.8403 13.4489C38.5363 13.9801 38.1159 14.392 37.579 14.6847C37.0449 14.9744 36.4312 15.1193 35.7381 15.1193C34.9653 15.1193 34.2863 14.9375 33.7011 14.5739C33.1187 14.2102 32.6642 13.6932 32.3375 13.0227C32.0136 12.3523 31.8517 11.5568 31.8517 10.6364C31.8517 9.94602 31.944 9.32528 32.1287 8.77415C32.3162 8.22017 32.5804 7.74858 32.9213 7.35938C33.2622 6.97017 33.6656 6.67188 34.1315 6.46449C34.5974 6.2571 35.1102 6.15341 35.6699 6.15341C36.1301 6.15341 36.5591 6.22301 36.9568 6.36222C37.3574 6.49858 37.7139 6.69318 38.0264 6.94602C38.3417 7.19602 38.6045 7.49574 38.8148 7.84517C39.025 8.19176 39.1699 8.5767 39.2494 9H38.1585ZM48.9542 10.6364C48.9542 11.5568 48.788 12.3523 48.4556 13.0227C48.1232 13.6932 47.6673 14.2102 47.0877 14.5739C46.5082 14.9375 45.8463 15.1193 45.1019 15.1193C44.3576 15.1193 43.6957 14.9375 43.1161 14.5739C42.5366 14.2102 42.0806 13.6932 41.7482 13.0227C41.4159 12.3523 41.2497 11.5568 41.2497 10.6364C41.2497 9.71591 41.4159 8.92045 41.7482 8.25C42.0806 7.57955 42.5366 7.0625 43.1161 6.69886C43.6957 6.33523 44.3576 6.15341 45.1019 6.15341C45.8463 6.15341 46.5082 6.33523 47.0877 6.69886C47.6673 7.0625 48.1232 7.57955 48.4556 8.25C48.788 8.92045 48.9542 9.71591 48.9542 10.6364ZM47.9315 10.6364C47.9315 9.88068 47.8051 9.2429 47.5522 8.72301C47.3022 8.20312 46.9627 7.80966 46.5338 7.54261C46.1076 7.27557 45.6303 7.14205 45.1019 7.14205C44.5735 7.14205 44.0948 7.27557 43.6659 7.54261C43.2397 7.80966 42.9002 8.20312 42.6474 8.72301C42.3974 9.2429 42.2724 9.88068 42.2724 10.6364C42.2724 11.392 42.3974 12.0298 42.6474 12.5497C42.9002 13.0696 43.2397 13.4631 43.6659 13.7301C44.0948 13.9972 44.5735 14.1307 45.1019 14.1307C45.6303 14.1307 46.1076 13.9972 46.5338 13.7301C46.9627 13.4631 47.3022 13.0696 47.5522 12.5497C47.8051 12.0298 47.9315 11.392 47.9315 10.6364ZM52.268 6.27273V15H51.2112V6.27273H52.268ZM61.7874 6.27273V15H60.7647L56.009 8.14773H55.9238V15H54.867V6.27273H55.8897L60.6624 13.142H60.7477V6.27273H61.7874ZM70.348 9C70.2543 8.71307 70.1307 8.45597 69.9773 8.22869C69.8267 7.99858 69.6463 7.80256 69.4361 7.64062C69.2287 7.47869 68.9929 7.35511 68.7287 7.26989C68.4645 7.18466 68.1747 7.14205 67.8594 7.14205C67.3424 7.14205 66.8722 7.27557 66.4489 7.54261C66.0256 7.80966 65.689 8.20312 65.439 8.72301C65.189 9.2429 65.064 9.88068 65.064 10.6364C65.064 11.392 65.1904 12.0298 65.4432 12.5497C65.6961 13.0696 66.0384 13.4631 66.4702 13.7301C66.902 13.9972 67.3878 14.1307 67.9276 14.1307C68.4276 14.1307 68.8679 14.0241 69.2486 13.8111C69.6321 13.5952 69.9304 13.2912 70.1435 12.8991C70.3594 12.5043 70.4674 12.0398 70.4674 11.5057L70.7912 11.5739H68.1662V10.6364H71.4901V11.5739C71.4901 12.2926 71.3367 12.9176 71.0299 13.4489C70.7259 13.9801 70.3054 14.392 69.7685 14.6847C69.2344 14.9744 68.6208 15.1193 67.9276 15.1193C67.1549 15.1193 66.4759 14.9375 65.8907 14.5739C65.3083 14.2102 64.8537 13.6932 64.527 13.0227C64.2032 12.3523 64.0412 11.5568 64.0412 10.6364C64.0412 9.94602 64.1336 9.32528 64.3182 8.77415C64.5057 8.22017 64.7699 7.74858 65.1108 7.35938C65.4517 6.97017 65.8551 6.67188 66.3211 6.46449C66.787 6.2571 67.2997 6.15341 67.8594 6.15341C68.3196 6.15341 68.7486 6.22301 69.1463 6.36222C69.5469 6.49858 69.9034 6.69318 70.2159 6.94602C70.5313 7.19602 70.7941 7.49574 71.0043 7.84517C71.2145 8.19176 71.3594 8.5767 71.439 9H70.348Z" fill="white"/>
</svg>
