<svg width="66" height="21" viewBox="0 0 66 21" fill="none" xmlns="http://www.w3.org/2000/svg">
<path d="M15.75 15H13.0568V6.27273H15.8693C16.7159 6.27273 17.4403 6.44744 18.0426 6.79688C18.6449 7.14347 19.1065 7.64205 19.4276 8.29261C19.7486 8.94034 19.9091 9.71591 19.9091 10.6193C19.9091 11.5284 19.7472 12.3111 19.4233 12.9673C19.0994 13.6207 18.6278 14.1236 18.0085 14.4759C17.3892 14.8253 16.6364 15 15.75 15ZM14.1136 14.0625H15.6818C16.4034 14.0625 17.0014 13.9233 17.4759 13.6449C17.9503 13.3665 18.304 12.9702 18.5369 12.456C18.7699 11.9418 18.8864 11.3295 18.8864 10.6193C18.8864 9.91477 18.7713 9.30824 18.5412 8.79972C18.3111 8.28835 17.9673 7.89631 17.5099 7.62358C17.0526 7.34801 16.483 7.21023 15.8011 7.21023H14.1136V14.0625ZM22.1618 15V6.27273H25.1107C25.7925 6.27273 26.3522 6.3892 26.7897 6.62216C27.2272 6.85227 27.551 7.16903 27.7612 7.57244C27.9715 7.97585 28.0766 8.43466 28.0766 8.94886C28.0766 9.46307 27.9715 9.91903 27.7612 10.3168C27.551 10.7145 27.2286 11.027 26.7939 11.2543C26.3593 11.4787 25.8039 11.5909 25.1277 11.5909H22.7414V10.6364H25.0936C25.5595 10.6364 25.9345 10.5682 26.2186 10.4318C26.5056 10.2955 26.713 10.1023 26.8408 9.85227C26.9715 9.59943 27.0368 9.2983 27.0368 8.94886C27.0368 8.59943 26.9715 8.29403 26.8408 8.03267C26.7101 7.77131 26.5013 7.5696 26.2144 7.42756C25.9274 7.28267 25.5482 7.21023 25.0766 7.21023H23.2186V15H22.1618ZM26.2698 11.0795L28.4175 15H27.1902L25.0766 11.0795H26.2698ZM30.6756 15H29.5676L32.7721 6.27273H33.8631L37.0676 15H35.9596L33.3517 7.65341H33.2835L30.6756 15ZM31.0846 11.5909H35.5506V12.5284H31.0846V11.5909ZM38.907 15V6.27273H44.1399V7.21023H39.9638V10.1591H43.7479V11.0966H39.9638V15H38.907ZM45.9527 7.21023V6.27273H52.4981V7.21023H49.7538V15H48.697V7.21023H45.9527Z" fill="#7A7A7A"/>
<path d="M10.5 1H55.5V-1H10.5V1ZM55.5 20H10.5V22H55.5V20ZM10.5 20C5.2533 20 1 15.7467 1 10.5H-1C-1 16.8513 4.14873 22 10.5 22V20ZM65 10.5C65 15.7467 60.7467 20 55.5 20V22C61.8513 22 67 16.8513 67 10.5H65ZM55.5 1C60.7467 1 65 5.2533 65 10.5H67C67 4.14873 61.8513 -1 55.5 -1V1ZM10.5 -1C4.14873 -1 -1 4.14873 -1 10.5H1C1 5.25329 5.25329 1 10.5 1V-1Z" fill="#7A7A7A"/>
</svg>
