<svg width="66" height="21" viewBox="0 0 66 21" fill="none" xmlns="http://www.w3.org/2000/svg">
<path d="M0 10.5C0 4.70101 4.70101 0 10.5 0H55.5C61.299 0 66 4.70101 66 10.5C66 16.299 61.299 21 55.5 21H10.5C4.70101 21 0 16.299 0 10.5Z" fill="#7A7A7A"/>
<path d="M13.0568 15V6.27273H16.0057C16.6875 6.27273 17.2472 6.3892 17.6847 6.62216C18.1222 6.85227 18.446 7.16903 18.6562 7.57244C18.8665 7.97585 18.9716 8.43466 18.9716 8.94886C18.9716 9.46307 18.8665 9.91903 18.6562 10.3168C18.446 10.7145 18.1236 11.027 17.6889 11.2543C17.2543 11.4787 16.6989 11.5909 16.0227 11.5909H13.6364V10.6364H15.9886C16.4545 10.6364 16.8295 10.5682 17.1136 10.4318C17.4006 10.2955 17.608 10.1023 17.7358 9.85227C17.8665 9.59943 17.9318 9.2983 17.9318 8.94886C17.9318 8.59943 17.8665 8.29403 17.7358 8.03267C17.6051 7.77131 17.3963 7.5696 17.1094 7.42756C16.8224 7.28267 16.4432 7.21023 15.9716 7.21023H14.1136V15H13.0568ZM17.1648 11.0795L19.3125 15H18.0852L15.9716 11.0795H17.1648ZM21.2126 15V6.27273H26.4796V7.21023H22.2694V10.1591H26.2069V11.0966H22.2694V14.0625H26.5478V15H21.2126ZM29.2224 15H28.1145L31.319 6.27273H32.4099L35.6145 15H34.5065L31.8986 7.65341H31.8304L29.2224 15ZM29.6315 11.5909H34.0974V12.5284H29.6315V11.5909ZM40.147 15H37.4539V6.27273H40.2664C41.1129 6.27273 41.8374 6.44744 42.4396 6.79688C43.0419 7.14347 43.5036 7.64205 43.8246 8.29261C44.1456 8.94034 44.3061 9.71591 44.3061 10.6193C44.3061 11.5284 44.1442 12.3111 43.8203 12.9673C43.4965 13.6207 43.0249 14.1236 42.4056 14.4759C41.7862 14.8253 41.0334 15 40.147 15ZM38.5107 14.0625H40.0789C40.8004 14.0625 41.3985 13.9233 41.8729 13.6449C42.3473 13.3665 42.701 12.9702 42.934 12.456C43.1669 11.9418 43.2834 11.3295 43.2834 10.6193C43.2834 9.91477 43.1683 9.30824 42.9382 8.79972C42.7081 8.28835 42.3644 7.89631 41.907 7.62358C41.4496 7.34801 40.88 7.21023 40.1982 7.21023H38.5107V14.0625ZM45.3987 6.27273H46.6089L49.0294 10.3466H49.1316L51.5521 6.27273H52.7623L49.6089 11.4034V15H48.5521V11.4034L45.3987 6.27273Z" fill="white"/>
</svg>
